<svg xmlns="http://www.w3.org/2000/svg" viewBox="0 0 1200 360" fill="none" aria-labelledby="t d">
  <title id="t">Featured Projects</title>
  <desc id="d">Native SVG project filmstrip</desc>
  <defs>
    <linearGradient id="violet" x1="0" y1="0" x2="1" y2="0"><stop offset="0%" stop-color="#7c3aed"/><stop offset="100%" stop-color="#4b1ab1"/></linearGradient>
    <linearGradient id="g1" x1="0" y1="0" x2="1" y2="1"><stop offset="0%" stop-color="#1a1530"/><stop offset="100%" stop-color="#4b1ab1"/></linearGradient>
    <linearGradient id="g2" x1="0" y1="0" x2="1" y2="1"><stop offset="0%" stop-color="#0f172a"/><stop offset="100%" stop-color="#06b6d4"/></linearGradient>
    <linearGradient id="g3" x1="0" y1="0" x2="1" y2="1"><stop offset="0%" stop-color="#1a1033"/><stop offset="100%" stop-color="#7c3aed"/></linearGradient>
    <style>text{font-family:ui-sans-serif,system-ui,-apple-system,"Segoe UI",Roboto,Helvetica,Arial,sans-serif}</style>
  </defs>
  <rect width="1200" height="360" rx="14" fill="#0f0c1c"/>
  <rect x="1" y="1" width="1198" height="358" rx="13" stroke="url(#violet)" stroke-opacity=".3" fill="none"/>
  <text x="24" y="32" fill="#a78bfa" font-size="11" font-weight="700" letter-spacing="1.4">FEATURED REPOSITORIES</text>
  <rect x="20" y="48" width="376" height="292" rx="12" fill="#141024" stroke="url(#violet)" stroke-opacity=".28"/>
  <rect x="20" y="48" width="376" height="100" rx="12" fill="url(#g1)"/>
  <rect x="32" y="60" width="72" height="22" rx="6" fill="#7c3aed" fill-opacity=".35"/>
  <text x="68" y="75" text-anchor="middle" fill="#f5f3ff" font-size="10" font-weight="700"><!-- LIVE:repo1_lang -->Dart<!-- /LIVE:repo1_lang --></text>
  <text x="360" y="75" text-anchor="end" fill="#fbbf24" font-size="10">★ <!-- LIVE:repo1_stars -->3<!-- /LIVE:repo1_stars --></text>
  <text x="36" y="172" fill="#f5f3ff" font-size="15" font-weight="700"><!-- LIVE:repo1_name -->daily_expense_tracker<!-- /LIVE:repo1_name --></text>
  <text x="36" y="196" fill="#a78bfa" font-size="11">No description provided.</text>
  <rect x="412" y="48" width="376" height="292" rx="12" fill="#141024" stroke="url(#violet)" stroke-opacity=".28"/>
  <rect x="412" y="48" width="376" height="100" rx="12" fill="url(#g2)"/>
  <rect x="424" y="60" width="72" height="22" rx="6" fill="#7c3aed" fill-opacity=".35"/>
  <text x="460" y="75" text-anchor="middle" fill="#f5f3ff" font-size="10" font-weight="700"><!-- LIVE:repo2_lang -->TypeScript<!-- /LIVE:repo2_lang --></text>
  <text x="752" y="75" text-anchor="end" fill="#fbbf24" font-size="10">★ <!-- LIVE:repo2_stars -->1<!-- /LIVE:repo2_stars --></text>
  <text x="428" y="172" fill="#f5f3ff" font-size="15" font-weight="700"><!-- LIVE:repo2_name -->ZeroHunger-Monorepo<!-- /LIVE:repo2_name --></text>
  <text x="428" y="196" fill="#a78bfa" font-size="11">No description provided.</text>
  <rect x="804" y="48" width="376" height="292" rx="12" fill="#141024" stroke="url(#violet)" stroke-opacity=".28"/>
  <rect x="804" y="48" width="376" height="100" rx="12" fill="url(#g3)"/>
  <rect x="816" y="60" width="72" height="22" rx="6" fill="#7c3aed" fill-opacity=".35"/>
  <text x="852" y="75" text-anchor="middle" fill="#f5f3ff" font-size="10" font-weight="700"><!-- LIVE:repo3_lang -->TypeScript<!-- /LIVE:repo3_lang --></text>
  <text x="1144" y="75" text-anchor="end" fill="#fbbf24" font-size="10">★ <!-- LIVE:repo3_stars -->1<!-- /LIVE:repo3_stars --></text>
  <text x="820" y="172" fill="#f5f3ff" font-size="15" font-weight="700"><!-- LIVE:repo3_name -->Hudson-Furnishing<!-- /LIVE:repo3_name --></text>
  <text x="820" y="196" fill="#a78bfa" font-size="11">No description provided.</text>
</svg>